<svg xmlns="http://www.w3.org/2000/svg" style="display: none;">
  <!--
    Transformational Epicenter Custom Icon System
    All icons: 24x24 viewBox, 1.5-2px stroke, rounded caps/joins
    Designed to resonate with brand: elegant, organic, calm authority
  -->

  <!-- NATURE & GROWTH -->
  <symbol id="icon-seedling" viewBox="0 0 24 24" fill="none" stroke="currentColor" stroke-width="1.5" stroke-linecap="round" stroke-linejoin="round">
    <path d="M12 22V12"/>
    <path d="M12 12C12 12 12 8 8 4C8 4 8 12 12 12"/>
    <path d="M12 12C12 12 12 8 16 4C16 4 16 12 12 12"/>
    <path d="M12 22C9 22 6 20 6 17"/>
  </symbol>

  <symbol id="icon-leaf" viewBox="0 0 24 24" fill="none" stroke="currentColor" stroke-width="1.5" stroke-linecap="round" stroke-linejoin="round">
    <path d="M6 21C6 21 8 14 14 8C20 2 22 2 22 2C22 2 22 4 16 10C10 16 3 18 3 18"/>
    <path d="M3 18L6 21"/>
    <path d="M10 14C10 14 14 10 18 6"/>
  </symbol>

  <symbol id="icon-tree" viewBox="0 0 24 24" fill="none" stroke="currentColor" stroke-width="1.5" stroke-linecap="round" stroke-linejoin="round">
    <path d="M12 22V14"/>
    <path d="M12 14L8 18"/>
    <path d="M12 14L16 18"/>
    <path d="M12 3C8 3 5 6 5 10C5 12 6 13.5 7.5 14.5"/>
    <path d="M12 3C16 3 19 6 19 10C19 12 18 13.5 16.5 14.5"/>
    <circle cx="12" cy="9" r="5"/>
  </symbol>

  <symbol id="icon-herb" viewBox="0 0 24 24" fill="none" stroke="currentColor" stroke-width="1.5" stroke-linecap="round" stroke-linejoin="round">
    <path d="M12 22V10"/>
    <path d="M7 10C7 6 9 3 12 3C15 3 17 6 17 10"/>
    <ellipse cx="12" cy="7" rx="4" ry="5"/>
    <path d="M9 22H15"/>
  </symbol>

  <symbol id="icon-lotus" viewBox="0 0 24 24" fill="none" stroke="currentColor" stroke-width="1.5" stroke-linecap="round" stroke-linejoin="round">
    <path d="M12 21C12 21 8 17 8 13C8 9 10 7 12 7C14 7 16 9 16 13C16 17 12 21 12 21Z"/>
    <path d="M12 7V3"/>
    <path d="M6 13C4 11 3 8 5 5C8 7 9 10 8 13"/>
    <path d="M18 13C20 11 21 8 19 5C16 7 15 10 16 13"/>
    <path d="M3 16C3 16 6 15 8 13"/>
    <path d="M21 16C21 16 18 15 16 13"/>
  </symbol>

  <!-- CELESTIAL & LIGHT -->
  <symbol id="icon-sun" viewBox="0 0 24 24" fill="none" stroke="currentColor" stroke-width="1.5" stroke-linecap="round" stroke-linejoin="round">
    <circle cx="12" cy="12" r="4"/>
    <path d="M12 2V4"/>
    <path d="M12 20V22"/>
    <path d="M4.93 4.93L6.34 6.34"/>
    <path d="M17.66 17.66L19.07 19.07"/>
    <path d="M2 12H4"/>
    <path d="M20 12H22"/>
    <path d="M6.34 17.66L4.93 19.07"/>
    <path d="M19.07 4.93L17.66 6.34"/>
  </symbol>

  <symbol id="icon-star" viewBox="0 0 24 24" fill="none" stroke="currentColor" stroke-width="1.5" stroke-linecap="round" stroke-linejoin="round">
    <polygon points="12 2 15.09 8.26 22 9.27 17 14.14 18.18 21.02 12 17.77 5.82 21.02 7 14.14 2 9.27 8.91 8.26 12 2"/>
  </symbol>

  <symbol id="icon-sparkle" viewBox="0 0 24 24" fill="none" stroke="currentColor" stroke-width="1.5" stroke-linecap="round" stroke-linejoin="round">
    <path d="M12 3L13.5 9L19 10L13.5 11.5L12 18L10.5 11.5L5 10L10.5 9L12 3Z"/>
    <path d="M19 16L20 18.5L22 19L20 19.5L19 22L18 19.5L16 19L18 18.5L19 16Z"/>
    <path d="M5 2L6 4L8 5L6 6L5 8L4 6L2 5L4 4L5 2Z"/>
  </symbol>

  <symbol id="icon-snowflake" viewBox="0 0 24 24" fill="none" stroke="currentColor" stroke-width="1.5" stroke-linecap="round" stroke-linejoin="round">
    <path d="M12 2V22"/>
    <path d="M12 6L9 3M12 6L15 3"/>
    <path d="M12 18L9 21M12 18L15 21"/>
    <path d="M3.27 6.96L20.73 17.04"/>
    <path d="M7.53 5.03L5.79 8.03M7.53 5.03L10.53 3.29"/>
    <path d="M16.47 18.97L18.21 15.97M16.47 18.97L13.47 20.71"/>
    <path d="M20.73 6.96L3.27 17.04"/>
    <path d="M16.47 5.03L18.21 8.03M16.47 5.03L13.47 3.29"/>
    <path d="M7.53 18.97L5.79 15.97M7.53 18.97L10.53 20.71"/>
  </symbol>

  <!-- PEOPLE & COMMUNITY -->
  <symbol id="icon-person" viewBox="0 0 24 24" fill="none" stroke="currentColor" stroke-width="1.5" stroke-linecap="round" stroke-linejoin="round">
    <circle cx="12" cy="7" r="4"/>
    <path d="M5.5 21C5.5 16.5 8.5 13 12 13C15.5 13 18.5 16.5 18.5 21"/>
  </symbol>

  <symbol id="icon-community" viewBox="0 0 24 24" fill="none" stroke="currentColor" stroke-width="1.5" stroke-linecap="round" stroke-linejoin="round">
    <circle cx="9" cy="7" r="3"/>
    <circle cx="17" cy="9" r="2.5"/>
    <path d="M3 21C3 17 5.5 14 9 14C10.5 14 11.8 14.5 12.8 15.2"/>
    <path d="M12 21C12 18 14 16 17 16C20 16 22 18 22 21"/>
  </symbol>

  <symbol id="icon-team" viewBox="0 0 24 24" fill="none" stroke="currentColor" stroke-width="1.5" stroke-linecap="round" stroke-linejoin="round">
    <circle cx="12" cy="5" r="3"/>
    <circle cx="5" cy="10" r="2.5"/>
    <circle cx="19" cy="10" r="2.5"/>
    <path d="M6 21C6 17.5 8.5 15 12 15C15.5 15 18 17.5 18 21"/>
    <path d="M2 19C2 16.5 3 14.5 5 14"/>
    <path d="M22 19C22 16.5 21 14.5 19 14"/>
  </symbol>

  <!-- MEDICAL & HEALTH -->
  <symbol id="icon-heart" viewBox="0 0 24 24" fill="none" stroke="currentColor" stroke-width="1.5" stroke-linecap="round" stroke-linejoin="round">
    <path d="M20.84 4.61a5.5 5.5 0 0 0-7.78 0L12 5.67l-1.06-1.06a5.5 5.5 0 0 0-7.78 7.78l1.06 1.06L12 21.23l7.78-7.78 1.06-1.06a5.5 5.5 0 0 0 0-7.78z"/>
  </symbol>

  <symbol id="icon-heart-pulse" viewBox="0 0 24 24" fill="none" stroke="currentColor" stroke-width="1.5" stroke-linecap="round" stroke-linejoin="round">
    <path d="M20.84 4.61a5.5 5.5 0 0 0-7.78 0L12 5.67l-1.06-1.06a5.5 5.5 0 0 0-7.78 7.78l1.06 1.06L12 21.23l7.78-7.78 1.06-1.06a5.5 5.5 0 0 0 0-7.78z"/>
    <path d="M3.5 12H7L9 8L12 16L14 12L16 12H20.5"/>
  </symbol>

  <symbol id="icon-stethoscope" viewBox="0 0 24 24" fill="none" stroke="currentColor" stroke-width="1.5" stroke-linecap="round" stroke-linejoin="round">
    <path d="M4 4C4 4 4 11 4 13C4 16 6 18 9 18C12 18 14 16 14 13V11"/>
    <path d="M8 4C8 4 8 11 8 13C8 14 9 15 10 15"/>
    <circle cx="19" cy="8" r="2"/>
    <path d="M19 10V14C19 17 17 19 14 19C11 19 9 17 9 14"/>
    <path d="M2 4H6"/>
    <path d="M6 4H10"/>
  </symbol>

  <symbol id="icon-ambulance" viewBox="0 0 24 24" fill="none" stroke="currentColor" stroke-width="1.5" stroke-linecap="round" stroke-linejoin="round">
    <rect x="1" y="8" width="14" height="10" rx="1"/>
    <path d="M15 8L20 12V18H15"/>
    <circle cx="6" cy="18" r="2"/>
    <circle cx="17" cy="18" r="2"/>
    <path d="M8 8V4H12L15 8"/>
    <path d="M8 11V14"/>
    <path d="M6.5 12.5H9.5"/>
  </symbol>

  <symbol id="icon-medical" viewBox="0 0 24 24" fill="none" stroke="currentColor" stroke-width="1.5" stroke-linecap="round" stroke-linejoin="round">
    <path d="M9 3H15V9H21V15H15V21H9V15H3V9H9V3Z"/>
  </symbol>

  <symbol id="icon-pill" viewBox="0 0 24 24" fill="none" stroke="currentColor" stroke-width="1.5" stroke-linecap="round" stroke-linejoin="round">
    <path d="M10.5 20.5L3.5 13.5C1.5 11.5 1.5 8.5 3.5 6.5C5.5 4.5 8.5 4.5 10.5 6.5L17.5 13.5C19.5 15.5 19.5 18.5 17.5 20.5C15.5 22.5 12.5 22.5 10.5 20.5Z"/>
    <path d="M7 17L14 10"/>
  </symbol>

  <symbol id="icon-eye" viewBox="0 0 24 24" fill="none" stroke="currentColor" stroke-width="1.5" stroke-linecap="round" stroke-linejoin="round">
    <path d="M1 12C1 12 5 4 12 4C19 4 23 12 23 12C23 12 19 20 12 20C5 20 1 12 1 12Z"/>
    <circle cx="12" cy="12" r="3"/>
  </symbol>

  <symbol id="icon-syringe" viewBox="0 0 24 24" fill="none" stroke="currentColor" stroke-width="1.5" stroke-linecap="round" stroke-linejoin="round">
    <path d="M18 2L22 6L19.5 8.5"/>
    <path d="M15 5L19 9"/>
    <rect x="5" y="10" width="10" height="4" rx="1" transform="rotate(-45 5 10)"/>
    <path d="M2 22L5 19"/>
    <path d="M11.5 11.5L6.5 16.5"/>
    <path d="M9 9L6 12"/>
    <path d="M12 12L9 15"/>
  </symbol>

  <symbol id="icon-doctor" viewBox="0 0 24 24" fill="none" stroke="currentColor" stroke-width="1.5" stroke-linecap="round" stroke-linejoin="round">
    <circle cx="12" cy="6" r="4"/>
    <path d="M4 21C4 16 7.5 13 12 13C16.5 13 20 16 20 21"/>
    <path d="M10 9V11H14V9"/>
    <path d="M12 16V18M11 17H13"/>
  </symbol>

  <symbol id="icon-shield" viewBox="0 0 24 24" fill="none" stroke="currentColor" stroke-width="1.5" stroke-linecap="round" stroke-linejoin="round">
    <path d="M12 2L3 6V11C3 16.5 6.84 21.74 12 23C17.16 21.74 21 16.5 21 11V6L12 2Z"/>
  </symbol>

  <symbol id="icon-shield-check" viewBox="0 0 24 24" fill="none" stroke="currentColor" stroke-width="1.5" stroke-linecap="round" stroke-linejoin="round">
    <path d="M12 2L3 6V11C3 16.5 6.84 21.74 12 23C17.16 21.74 21 16.5 21 11V6L12 2Z"/>
    <path d="M9 12L11 14L15 10"/>
  </symbol>

  <!-- BUILDINGS & LOCATION -->
  <symbol id="icon-house" viewBox="0 0 24 24" fill="none" stroke="currentColor" stroke-width="1.5" stroke-linecap="round" stroke-linejoin="round">
    <path d="M3 10L12 3L21 10V20C21 21 20 22 19 22H5C4 22 3 21 3 20V10Z"/>
    <path d="M9 22V14H15V22"/>
  </symbol>

  <symbol id="icon-sanctuary" viewBox="0 0 24 24" fill="none" stroke="currentColor" stroke-width="1.5" stroke-linecap="round" stroke-linejoin="round">
    <path d="M3 10L12 3L21 10V20C21 21 20 22 19 22H5C4 22 3 21 3 20V10Z"/>
    <path d="M9 22V14H15V22"/>
    <path d="M6 22C4 21 2 19 2 16C4 16 6 18 6 20"/>
    <path d="M18 22C20 21 22 19 22 16C20 16 18 18 18 20"/>
  </symbol>

  <symbol id="icon-hospital" viewBox="0 0 24 24" fill="none" stroke="currentColor" stroke-width="1.5" stroke-linecap="round" stroke-linejoin="round">
    <rect x="3" y="3" width="18" height="18" rx="2"/>
    <path d="M9 10V14"/>
    <path d="M7 12H11"/>
    <path d="M15 10V14"/>
    <path d="M13 12H17"/>
    <path d="M3 8H21"/>
    <path d="M9 22V18H15V22"/>
  </symbol>

  <symbol id="icon-globe" viewBox="0 0 24 24" fill="none" stroke="currentColor" stroke-width="1.5" stroke-linecap="round" stroke-linejoin="round">
    <circle cx="12" cy="12" r="10"/>
    <path d="M2 12H22"/>
    <path d="M12 2C14.5 4.5 16 8 16 12C16 16 14.5 19.5 12 22"/>
    <path d="M12 2C9.5 4.5 8 8 8 12C8 16 9.5 19.5 12 22"/>
  </symbol>

  <!-- OBJECTS -->
  <symbol id="icon-calendar" viewBox="0 0 24 24" fill="none" stroke="currentColor" stroke-width="1.5" stroke-linecap="round" stroke-linejoin="round">
    <rect x="3" y="4" width="18" height="18" rx="2"/>
    <path d="M3 10H21"/>
    <path d="M8 2V6"/>
    <path d="M16 2V6"/>
    <path d="M8 14H8.01"/>
    <path d="M12 14H12.01"/>
    <path d="M16 14H16.01"/>
    <path d="M8 18H8.01"/>
    <path d="M12 18H12.01"/>
  </symbol>

  <symbol id="icon-clock" viewBox="0 0 24 24" fill="none" stroke="currentColor" stroke-width="1.5" stroke-linecap="round" stroke-linejoin="round">
    <circle cx="12" cy="12" r="10"/>
    <path d="M12 6V12L16 14"/>
  </symbol>

  <symbol id="icon-phone" viewBox="0 0 24 24" fill="none" stroke="currentColor" stroke-width="1.5" stroke-linecap="round" stroke-linejoin="round">
    <rect x="5" y="2" width="14" height="20" rx="2"/>
    <path d="M12 18H12.01"/>
  </symbol>

  <symbol id="icon-tablet" viewBox="0 0 24 24" fill="none" stroke="currentColor" stroke-width="1.5" stroke-linecap="round" stroke-linejoin="round">
    <rect x="4" y="2" width="16" height="20" rx="2"/>
    <path d="M12 18H12.01"/>
  </symbol>

  <symbol id="icon-document" viewBox="0 0 24 24" fill="none" stroke="currentColor" stroke-width="1.5" stroke-linecap="round" stroke-linejoin="round">
    <path d="M14 2H6C5 2 4 3 4 4V20C4 21 5 22 6 22H18C19 22 20 21 20 20V8L14 2Z"/>
    <path d="M14 2V8H20"/>
    <path d="M8 13H16"/>
    <path d="M8 17H12"/>
  </symbol>

  <symbol id="icon-book" viewBox="0 0 24 24" fill="none" stroke="currentColor" stroke-width="1.5" stroke-linecap="round" stroke-linejoin="round">
    <path d="M4 19.5V4.5C4 3.5 5 3 6 3H20V18H6C5 18 4 18.5 4 19.5C4 20.5 5 21 6 21H20"/>
    <path d="M8 7H16"/>
    <path d="M8 11H14"/>
  </symbol>

  <symbol id="icon-lightbulb" viewBox="0 0 24 24" fill="none" stroke="currentColor" stroke-width="1.5" stroke-linecap="round" stroke-linejoin="round">
    <path d="M9 21H15"/>
    <path d="M10 17H14V14.5C14 13 16 12 16 9C16 6 14 4 12 3C10 4 8 6 8 9C8 12 10 13 10 14.5V17Z"/>
    <path d="M12 3V2"/>
    <path d="M4.22 4.22L5 5"/>
    <path d="M19.78 4.22L19 5"/>
    <path d="M2 12H3"/>
    <path d="M21 12H22"/>
  </symbol>

  <symbol id="icon-chart" viewBox="0 0 24 24" fill="none" stroke="currentColor" stroke-width="1.5" stroke-linecap="round" stroke-linejoin="round">
    <path d="M18 20V10"/>
    <path d="M12 20V4"/>
    <path d="M6 20V14"/>
    <path d="M2 20H22"/>
  </symbol>

  <symbol id="icon-speech" viewBox="0 0 24 24" fill="none" stroke="currentColor" stroke-width="1.5" stroke-linecap="round" stroke-linejoin="round">
    <path d="M21 11.5C21 16.2 16.97 20 12 20C10.5 20 9 19.7 7.7 19.2L3 21L4.5 16.5C3.5 15.1 3 13.4 3 11.5C3 6.8 7.03 3 12 3C16.97 3 21 6.8 21 11.5Z"/>
  </symbol>

  <symbol id="icon-hands" viewBox="0 0 24 24" fill="none" stroke="currentColor" stroke-width="1.5" stroke-linecap="round" stroke-linejoin="round">
    <path d="M18 11V6C18 4.9 17.1 4 16 4C14.9 4 14 4.9 14 6V11"/>
    <path d="M14 10V4C14 2.9 13.1 2 12 2C10.9 2 10 2.9 10 4V10"/>
    <path d="M10 9V5C10 3.9 9.1 3 8 3C6.9 3 6 3.9 6 5V13"/>
    <path d="M18 11C18 11 20 13 20 15C20 17 18 22 12 22C6 22 6 17 6 13"/>
    <path d="M18 11C19.1 11 20 10.1 20 9C20 7.9 19.1 7 18 7C16.9 7 16 7.9 16 9"/>
  </symbol>

  <symbol id="icon-massage" viewBox="0 0 24 24" fill="none" stroke="currentColor" stroke-width="1.5" stroke-linecap="round" stroke-linejoin="round">
    <circle cx="12" cy="5" r="3"/>
    <path d="M5 22V14C5 11 7 9 10 9H14C17 9 19 11 19 14V22"/>
    <path d="M5 14H19"/>
    <path d="M9 18V22"/>
    <path d="M15 18V22"/>
  </symbol>

  <symbol id="icon-dining" viewBox="0 0 24 24" fill="none" stroke="currentColor" stroke-width="1.5" stroke-linecap="round" stroke-linejoin="round">
    <path d="M3 2V10C3 11.1 4.2 12 6 12C7.8 12 9 11.1 9 10V2"/>
    <path d="M6 12V22"/>
    <path d="M6 2V6"/>
    <path d="M18 2V6C18 9 16 11 16 14V22"/>
    <path d="M21 2C21 8 18 10 18 14"/>
  </symbol>

  <symbol id="icon-bed" viewBox="0 0 24 24" fill="none" stroke="currentColor" stroke-width="1.5" stroke-linecap="round" stroke-linejoin="round">
    <path d="M2 18V10C2 9 3 8 4 8H20C21 8 22 9 22 10V18"/>
    <path d="M2 18V20"/>
    <path d="M22 18V20"/>
    <path d="M6 8V6C6 5 7 4 8 4H16C17 4 18 5 18 6V8"/>
    <ellipse cx="7" cy="12" rx="2" ry="1.5"/>
    <path d="M2 14H22"/>
  </symbol>

  <symbol id="icon-water" viewBox="0 0 24 24" fill="none" stroke="currentColor" stroke-width="1.5" stroke-linecap="round" stroke-linejoin="round">
    <path d="M12 2C12 2 5 9 5 14C5 18 8 21 12 21C16 21 19 18 19 14C19 9 12 2 12 2Z"/>
    <path d="M8 17C8 17 9 16 12 16C15 16 16 17 16 17"/>
  </symbol>

  <symbol id="icon-music" viewBox="0 0 24 24" fill="none" stroke="currentColor" stroke-width="1.5" stroke-linecap="round" stroke-linejoin="round">
    <path d="M9 18V5L21 3V16"/>
    <circle cx="6" cy="18" r="3"/>
    <circle cx="18" cy="16" r="3"/>
  </symbol>

  <symbol id="icon-wrench" viewBox="0 0 24 24" fill="none" stroke="currentColor" stroke-width="1.5" stroke-linecap="round" stroke-linejoin="round">
    <path d="M14.7 6.3C14.1 5 13.1 4 11.5 3.5C9.5 3 7.4 3.5 6 5C4.5 6.5 4 8.5 4.5 10.5C5 12.1 6 13.1 7.3 13.7L3 18C2.5 18.5 2.5 19.5 3 20L4 21C4.5 21.5 5.5 21.5 6 21L10.3 16.7C11.6 17.3 13 17.5 14.5 17C16.5 16.5 18 15 19 13C19.5 11.4 19.4 9.6 18.6 8.1"/>
    <path d="M18 3L15 6L17 8L20 5"/>
  </symbol>

  <symbol id="icon-trophy" viewBox="0 0 24 24" fill="none" stroke="currentColor" stroke-width="1.5" stroke-linecap="round" stroke-linejoin="round">
    <path d="M6 4H18V10C18 13 15 16 12 16C9 16 6 13 6 10V4Z"/>
    <path d="M6 6H4C3 6 2 7 2 8C2 10 4 11 6 11"/>
    <path d="M18 6H20C21 6 22 7 22 8C22 10 20 11 18 11"/>
    <path d="M12 16V19"/>
    <path d="M8 22H16"/>
    <path d="M8 22V19H16V22"/>
  </symbol>

  <symbol id="icon-airplane" viewBox="0 0 24 24" fill="none" stroke="currentColor" stroke-width="1.5" stroke-linecap="round" stroke-linejoin="round">
    <path d="M22 2L15 22L11 13L2 9L22 2Z"/>
    <path d="M22 2L11 13"/>
  </symbol>

  <symbol id="icon-arrow-up" viewBox="0 0 24 24" fill="none" stroke="currentColor" stroke-width="1.5" stroke-linecap="round" stroke-linejoin="round">
    <path d="M12 19V5"/>
    <path d="M5 12L12 5L19 12"/>
  </symbol>

  <symbol id="icon-arrow-right" viewBox="0 0 24 24" fill="none" stroke="currentColor" stroke-width="1.5" stroke-linecap="round" stroke-linejoin="round">
    <path d="M5 12H19"/>
    <path d="M12 5L19 12L12 19"/>
  </symbol>

  <symbol id="icon-target" viewBox="0 0 24 24" fill="none" stroke="currentColor" stroke-width="1.5" stroke-linecap="round" stroke-linejoin="round">
    <circle cx="12" cy="12" r="10"/>
    <circle cx="12" cy="12" r="6"/>
    <circle cx="12" cy="12" r="2"/>
  </symbol>

  <symbol id="icon-yoga" viewBox="0 0 24 24" fill="none" stroke="currentColor" stroke-width="1.5" stroke-linecap="round" stroke-linejoin="round">
    <circle cx="12" cy="4" r="2"/>
    <path d="M4 17L12 9L20 17"/>
    <path d="M12 9V15"/>
    <path d="M4 17V21"/>
    <path d="M20 17V21"/>
  </symbol>

  <symbol id="icon-breath" viewBox="0 0 24 24" fill="none" stroke="currentColor" stroke-width="1.5" stroke-linecap="round" stroke-linejoin="round">
    <circle cx="12" cy="12" r="9"/>
    <path d="M12 6V8"/>
    <path d="M12 16V18"/>
    <path d="M8 10C8 10 9 12 12 12C15 12 16 10 16 10"/>
    <path d="M8 14C8 14 9 12 12 12C15 12 16 14 16 14"/>
  </symbol>

  <!-- SYMBOLS -->
  <symbol id="icon-check" viewBox="0 0 24 24" fill="none" stroke="currentColor" stroke-width="2" stroke-linecap="round" stroke-linejoin="round">
    <path d="M5 12L10 17L20 7"/>
  </symbol>

  <symbol id="icon-check-circle" viewBox="0 0 24 24" fill="none" stroke="currentColor" stroke-width="1.5" stroke-linecap="round" stroke-linejoin="round">
    <circle cx="12" cy="12" r="10"/>
    <path d="M8 12L11 15L16 9"/>
  </symbol>

  <symbol id="icon-x" viewBox="0 0 24 24" fill="none" stroke="currentColor" stroke-width="2" stroke-linecap="round" stroke-linejoin="round">
    <path d="M18 6L6 18"/>
    <path d="M6 6L18 18"/>
  </symbol>

  <symbol id="icon-x-circle" viewBox="0 0 24 24" fill="none" stroke="currentColor" stroke-width="1.5" stroke-linecap="round" stroke-linejoin="round">
    <circle cx="12" cy="12" r="10"/>
    <path d="M15 9L9 15"/>
    <path d="M9 9L15 15"/>
  </symbol>

  <symbol id="icon-mail" viewBox="0 0 24 24" fill="none" stroke="currentColor" stroke-width="1.5" stroke-linecap="round" stroke-linejoin="round">
    <rect x="2" y="4" width="20" height="16" rx="2"/>
    <path d="M22 6L12 13L2 6"/>
  </symbol>

  <symbol id="icon-phone-call" viewBox="0 0 24 24" fill="none" stroke="currentColor" stroke-width="1.5" stroke-linecap="round" stroke-linejoin="round">
    <path d="M15.05 5A5 5 0 0 1 19 8.95M15.05 1A9 9 0 0 1 23 8.94"/>
    <path d="M22 16.92v3a2 2 0 0 1-2.18 2 19.79 19.79 0 0 1-8.63-3.07 19.5 19.5 0 0 1-6-6 19.79 19.79 0 0 1-3.07-8.67A2 2 0 0 1 4.11 2h3a2 2 0 0 1 2 1.72 12.84 12.84 0 0 0 .7 2.81 2 2 0 0 1-.45 2.11L8.09 9.91a16 16 0 0 0 6 6l1.27-1.27a2 2 0 0 1 2.11-.45 12.84 12.84 0 0 0 2.81.7A2 2 0 0 1 22 16.92z"/>
  </symbol>

  <symbol id="icon-microscope" viewBox="0 0 24 24" fill="none" stroke="currentColor" stroke-width="1.5" stroke-linecap="round" stroke-linejoin="round">
    <path d="M6 21H18"/>
    <path d="M12 21V17"/>
    <circle cx="12" cy="11" r="5"/>
    <path d="M12 6V3"/>
    <path d="M9 3H15"/>
    <path d="M8.5 8.5L5 5"/>
    <path d="M15.5 8.5L19 5"/>
  </symbol>

  <symbol id="icon-journal" viewBox="0 0 24 24" fill="none" stroke="currentColor" stroke-width="1.5" stroke-linecap="round" stroke-linejoin="round">
    <path d="M4 4H20C21 4 22 5 22 6V18C22 19 21 20 20 20H4C3 20 2 19 2 18V6C2 5 3 4 4 4Z"/>
    <path d="M7 4V20"/>
    <path d="M10 8H18"/>
    <path d="M10 12H18"/>
    <path d="M10 16H15"/>
  </symbol>

  <symbol id="icon-infinity" viewBox="0 0 24 24" fill="none" stroke="currentColor" stroke-width="1.5" stroke-linecap="round" stroke-linejoin="round">
    <path d="M18.178 8.00037C20.5728 10.3952 20.5728 14.2426 18.178 16.6375C15.7831 19.0323 11.9357 19.0323 9.54089 16.6375L5.82159 12.9182C3.42673 10.5233 3.42673 6.67591 5.82159 4.28106C8.21644 1.8862 12.0638 1.8862 14.4587 4.28106L18.178 8.00037Z"/>
  </symbol>

  <!-- PLACEHOLDER ICONS (for image placeholders) -->
  <symbol id="icon-image" viewBox="0 0 24 24" fill="none" stroke="currentColor" stroke-width="1.5" stroke-linecap="round" stroke-linejoin="round">
    <rect x="3" y="3" width="18" height="18" rx="2"/>
    <circle cx="8.5" cy="8.5" r="1.5"/>
    <path d="M21 15L16 10L5 21"/>
  </symbol>
</svg>
